<svg xmlns="http://www.w3.org/2000/svg" viewBox="0 0 200 200" width="200" height="200">
  <circle cx="100" cy="100" r="98" fill="#12121e" stroke="#39ff14" stroke-width="3"/>
  <g transform="translate(100,105)" fill="#39ff14">
    <!-- Center leaf -->
    <path d="M0,-55 C8,-35 6,-15 0,10 C-6,-15 -8,-35 0,-55Z" opacity="0.9"/>
    <!-- Left leaves -->
    <path d="M0,10 C-15,-25 -35,-40 -50,-48 C-30,-30 -15,-10 0,10Z" opacity="0.8"/>
    <path d="M0,10 C-20,-15 -45,-25 -60,-28 C-40,-15 -20,-2 0,10Z" opacity="0.7"/>
    <path d="M0,10 C-22,-5 -45,-8 -58,-5 C-40,-2 -20,3 0,10Z" opacity="0.6"/>
    <!-- Right leaves -->
    <path d="M0,10 C15,-25 35,-40 50,-48 C30,-30 15,-10 0,10Z" opacity="0.8"/>
    <path d="M0,10 C20,-15 45,-25 60,-28 C40,-15 20,-2 0,10Z" opacity="0.7"/>
    <path d="M0,10 C22,-5 45,-8 58,-5 C40,-2 20,3 0,10Z" opacity="0.6"/>
    <!-- Stem -->
    <rect x="-2" y="10" width="4" height="30" rx="2" opacity="0.9"/>
  </g>
  <text x="100" y="165" text-anchor="middle" fill="#39ff14" font-family="Arial Black,sans-serif" font-size="18" font-weight="900" letter-spacing="3">AIRWAVES</text>
</svg>
